<svg  viewBox="0 0 18 22" fill="none" xmlns="http://www.w3.org/2000/svg">
  <path d="M11.75 4.59766C12.237 4.59766 12.6667 4.78385 13.0391 5.15625C13.4115 5.5 13.5977 5.91536 13.5977 6.40234V21.0977L7.15234 18.3477L0.75 21.0977V6.40234C0.75 5.91536 0.936198 5.5 1.30859 5.15625C1.68099 4.78385 2.11068 4.59766 2.59766 4.59766H11.75ZM15.4023 16.5V4.59766C15.4023 4.11068 15.2161 3.68099 14.8438 3.30859C14.5 2.9362 14.0846 2.75 13.5977 2.75H4.40234C4.40234 2.26302 4.58854 1.83333 4.96094 1.46094C5.33333 1.08854 5.76302 0.902344 6.25 0.902344H15.4023C15.8893 0.902344 16.319 1.08854 16.6914 1.46094C17.0638 1.83333 17.25 2.26302 17.25 2.75V17.4023L15.4023 16.5Z" fill="#5D5D5B"/>
</svg>
