<svg viewBox="0 0 20 16" fill="none" xmlns="http://www.w3.org/2000/svg">
<path d="M17.3477 4.34766V2.5H2.65234V4.34766H17.3477ZM17.3477 13.5V8H2.65234V13.5H17.3477ZM17.3477 0.652344C17.8633 0.652344 18.293 0.838542 18.6367 1.21094C18.9805 1.55469 19.1523 1.98438 19.1523 2.5V13.5C19.1523 14.0156 18.9805 14.4596 18.6367 14.832C18.293 15.1758 17.8633 15.3477 17.3477 15.3477H2.65234C2.13672 15.3477 1.70703 15.1758 1.36328 14.832C1.01953 14.4596 0.847656 14.0156 0.847656 13.5V2.5C0.847656 1.98438 1.01953 1.55469 1.36328 1.21094C1.70703 0.838542 2.13672 0.652344 2.65234 0.652344H17.3477Z" fill="#5D5D5B"/>
</svg>
