<svg  viewBox="0 0 20 20" fill="none" xmlns="http://www.w3.org/2000/svg">
<path d="M4.80078 15.1992C6.26172 16.6315 7.99479 17.3477 10 17.3477C12.0052 17.3477 13.724 16.6315 15.1562 15.1992C16.6172 13.7383 17.3477 12.0052 17.3477 10C17.3477 7.99479 16.6172 6.27604 15.1562 4.84375C13.724 3.38281 12.0052 2.65234 10 2.65234C7.99479 2.65234 6.26172 3.38281 4.80078 4.84375C3.36849 6.27604 2.65234 7.99479 2.65234 10C2.65234 12.0052 3.36849 13.7383 4.80078 15.1992ZM3.51172 3.55469C5.31641 1.75 7.47917 0.847656 10 0.847656C12.5208 0.847656 14.6693 1.75 16.4453 3.55469C18.25 5.33073 19.1523 7.47917 19.1523 10C19.1523 12.5208 18.25 14.6836 16.4453 16.4883C14.6693 18.2643 12.5208 19.1523 10 19.1523C7.47917 19.1523 5.31641 18.2643 3.51172 16.4883C1.73568 14.6836 0.847656 12.5208 0.847656 10C0.847656 7.47917 1.73568 5.33073 3.51172 3.55469ZM12.0625 4.97266C12.8073 5.28776 13.4089 5.67448 13.8672 6.13281C14.3255 6.59115 14.7122 7.19271 15.0273 7.9375C15.3424 8.68229 15.5 9.36979 15.5 10C15.5 10.6302 15.3424 11.3177 15.0273 12.0625C14.7409 12.8073 14.3685 13.4089 13.9102 13.8672C12.8503 14.9557 11.5612 15.5 10.043 15.5C8.52474 15.5 7.22135 14.9557 6.13281 13.8672L10 10V4.5C10.6302 4.5 11.3177 4.65755 12.0625 4.97266Z" fill="black"/>
</svg>
