<svg width="233" height="231" viewBox="0 0 233 231" fill="none" xmlns="http://www.w3.org/2000/svg">
<path opacity="0.7" fill-rule="evenodd" clip-rule="evenodd" d="M231 115.5C231.015 128.645 228.782 141.695 224.396 154.087C224.394 154.095 224.391 154.101 224.388 154.109C224.369 154.166 224.35 154.219 224.328 154.276V154.279C223.392 156.907 222.364 159.492 221.244 162.032C218.418 168.438 215.015 174.574 211.077 180.364C210.122 181.774 209.134 183.161 208.111 184.526C206.986 186.035 205.826 187.513 204.63 188.962C203.527 190.298 202.395 191.608 201.233 192.893C199.853 194.424 198.432 195.916 196.97 197.368C193.528 200.795 189.874 204.002 186.029 206.97C185.354 207.494 184.672 208.009 183.982 208.515C182.377 209.7 180.741 210.843 179.072 211.944C175.401 214.371 171.593 216.584 167.667 218.572C166.989 218.918 166.306 219.258 165.62 219.587C162.967 220.868 160.261 222.047 157.5 223.124C156.712 223.434 155.922 223.733 155.124 224.021C154.989 224.073 154.855 224.122 154.718 224.169C145.251 227.586 135.376 229.742 125.346 230.583C124.649 230.646 123.952 230.699 123.253 230.742C122.512 230.794 121.771 230.836 121.028 230.868C120.441 230.898 119.857 230.92 119.267 230.937C119.146 230.942 119.023 230.948 118.902 230.948C118.109 230.973 117.313 230.988 116.515 230.995C116.178 230.997 115.84 231 115.5 231C115.341 231 115.182 231 115.023 230.997C112.721 230.989 110.436 230.914 108.169 230.772C108.123 230.77 108.076 230.764 108.03 230.764C107.217 230.709 106.408 230.652 105.602 230.58C102.729 230.339 99.8879 229.991 97.0776 229.538C96.4302 229.436 95.7845 229.326 95.1407 229.209C92.3451 228.715 89.5861 228.119 86.8637 227.423C86.0544 227.217 85.2496 227.002 84.4494 226.778C79.8312 225.493 75.2983 223.918 70.8775 222.065C68.3398 221 65.8497 219.85 63.4071 218.613C62.3069 218.056 61.2178 217.482 60.1396 216.89C59.846 216.731 59.5552 216.569 59.2644 216.408C57.141 215.222 55.0614 213.973 53.0258 212.66C51.3578 211.587 49.7208 210.472 48.115 209.313C47.9174 209.176 47.7227 209.033 47.5279 208.89C46.2961 207.993 45.0844 207.073 43.8928 206.13C41.3002 204.076 38.8 201.916 36.3922 199.653C34.7269 198.089 33.1101 196.476 31.5417 194.814C22.4034 185.149 15.0001 173.982 9.65707 161.802C8.52127 159.209 7.47876 156.569 6.52952 153.881C6.52644 153.875 6.52457 153.869 6.52403 153.862C2.19209 141.536 -0.0139674 128.565 6.65383e-05 115.5C6.65383e-05 67.0065 29.8874 25.4923 72.2465 8.37311C102.778 -3.91345 137.094 -2.62957 166.622 11.904C204.767 30.7598 231 70.0682 231 115.5Z" fill="#EBF0F0"/>
<path d="M166 11.9146V158H72V8.38058C102.41 -3.91694 136.59 -2.63191 166 11.9146Z" fill="white"/>
<path d="M95.0752 78.5311C97.6458 74.3108 100.692 69.8048 105.462 68.4268C110.986 66.8309 116.661 70.0012 121.475 73.1295C135.87 82.4854 149.733 92.6246 163 103.501L162.985 103.664C152.657 102.957 142.328 102.25 131.999 101.543C124.536 101.032 116.817 100.451 110.222 96.9465C107.719 95.6167 105.28 93.8404 102.444 93.7166C98.921 93.5628 95.849 96.0054 93.4348 98.5574C79.1541 113.653 75.0215 136.737 59 150C69.1027 125.268 81.1656 101.37 95.0752 78.5311Z" fill="#F2F2F2"/>
<path fill-rule="evenodd" clip-rule="evenodd" d="M173.058 15.8134L173.058 15.8138L173.058 15.8139C173.224 15.9189 173.39 16.0243 173.555 16.1336C174.039 16.4454 174.521 16.7628 175 17.0856V157H142.81L143.385 149.08L146.55 62.3741H82.8106L85.9757 149.08L86.5509 157H54V19.6188C54.5972 19.1811 55.1972 18.7488 55.8055 18.3248L55.8879 18.2676C55.9798 18.2037 56.0729 18.139 56.166 18.0759C63.167 13.2077 70.7405 9.20865 78.718 6.16763L80.4326 29.7024H91.4774V2.22557C92.1985 2.04776 92.9196 1.88088 93.6462 1.72495V1.72498C93.6462 17.1765 106.248 29.7024 121.793 29.7024H135.354V1C136.078 1.13131 136.801 1.27083 137.52 1.41855V29.7024H148.931L150.731 5.02139C158.493 7.69661 165.912 11.2712 172.834 15.6712C172.908 15.7188 172.983 15.7661 173.058 15.8134ZM82.2876 55.1931H91.4774V31.858H80.5895L82.2876 55.1931ZM135.354 55.1931H119.919V54.7307C119.919 54.2819 119.74 53.8514 119.42 53.5343C119.1 53.2172 118.667 53.0394 118.216 53.0401H111.506C111.054 53.0399 110.622 53.218 110.303 53.5351C109.984 53.8522 109.804 54.2823 109.805 54.7307V55.1931H93.6462V31.858H135.354V55.1931ZM137.52 31.858V55.1931H147.076L148.774 31.858H137.52Z" fill="#5D5D5B"/>
<path d="M224 154.22C223.997 154.228 223.995 154.234 223.992 154.242C223.973 154.298 223.953 154.349 223.931 154.406V154.408C222.995 156.982 221.967 159.512 220.846 162L9.13487 161.774C7.99841 159.236 6.95529 156.651 6.00549 154.019C6.00241 154.013 6.00054 154.007 6 154L224 154.22Z" fill="#5D5D5B"/>
<rect x="108" y="155" width="37" height="5" fill="white"/>
<path fill-rule="evenodd" clip-rule="evenodd" d="M59.1522 203.298C59.2855 202.138 59.4698 200.986 59.7051 199.841C60.9908 193.632 63.7503 187.813 67.757 182.86C70.0493 182.986 72.0581 182.641 72.2498 178.26C72.2695 177.836 72.452 177.443 72.6349 177.048C72.7882 176.718 72.9417 176.386 73 176.037C72.7833 176.067 72.5582 176.083 72.3415 176.097C72.3056 176.098 72.269 176.1 72.2328 176.102C72.1989 176.104 72.1654 176.106 72.1331 176.108H72.1081C71.6166 176.13 71.1575 175.866 70.936 175.432C70.7145 174.999 70.772 174.477 71.0829 174.101C71.1773 173.989 71.2718 173.873 71.3663 173.758C71.4607 173.64 71.5577 173.523 71.6546 173.407C71.7031 173.349 71.7515 173.29 71.7997 173.232C71.808 173.222 71.8157 173.213 71.8233 173.205C71.831 173.196 71.8386 173.187 71.8469 173.177C72.0109 172.977 72.1748 172.777 72.3415 172.577C72.0403 172.115 71.6353 171.729 71.1579 171.447C69.5047 170.491 67.2236 171.154 66.0288 172.629C64.8313 174.104 64.6035 176.176 65.0203 178.019C65.3759 179.598 66.1511 181.045 67.0208 182.421C66.9819 182.47 66.942 182.519 66.902 182.568L66.9019 182.568L66.9019 182.568C66.8503 182.631 66.7985 182.694 66.7485 182.759C65.1098 184.838 63.6814 187.071 62.4835 189.426C62.8225 186.813 58.6798 177.383 57.0767 175.384C55.1512 172.985 51.2058 174.032 50.8668 177.076C50.8655 177.088 50.8636 177.101 50.8617 177.115C50.8595 177.131 50.8572 177.147 50.8557 177.163C51.0946 177.295 51.328 177.435 51.5559 177.585C52.1416 177.972 52.4271 178.673 52.2746 179.352C52.1222 180.03 51.5631 180.547 50.8668 180.653L50.8307 180.659C47.6466 185.146 57.8574 196.828 60.4164 194.207C59.773 195.991 59.2595 197.818 58.8799 199.673C58.5391 201.31 58.3016 202.967 58.1686 204.633C58.0065 206.731 58.0167 208.839 58.1991 210.935C58.1941 210.911 58.1904 210.886 58.188 210.861C57.6185 206.294 47.8744 199.503 45.0293 200.068C44.7584 200.122 44.4882 200.165 44.2269 200.207L44.2269 200.207C42.9073 200.417 41.817 200.59 42.0257 201.952C42.0271 201.965 42.0292 201.978 42.0313 201.991C42.0334 202.004 42.0355 202.017 42.0369 202.031C42.4787 202.207 42.9084 202.411 43.3233 202.642C43.5622 202.774 43.7956 202.917 44.0235 203.065C44.5703 203.426 44.859 204.064 44.7659 204.706C44.6729 205.349 44.2146 205.882 43.5873 206.078C44.7959 207.018 46.023 207.937 47.2687 208.835C47.466 208.978 47.6632 209.121 47.8633 209.258C49.4887 210.415 51.1465 211.529 52.8367 212.602C54.8983 213.913 57.0044 215.161 59.1549 216.347L59.1552 216.347L59.1554 216.347C59.4497 216.509 59.7441 216.671 60.0413 216.83C59.2938 213.795 58.9151 210.684 58.9132 207.561C58.9125 206.136 58.9923 204.713 59.1522 203.298ZM58.4575 213.216L58.3714 213.027C58.3742 212.887 58.3742 212.75 58.3714 212.608C58.3714 212.589 58.3693 212.569 58.3672 212.55C58.3652 212.531 58.3631 212.512 58.3631 212.493C58.3764 212.59 58.3889 212.688 58.4013 212.785C58.42 212.932 58.4387 213.078 58.4603 213.225L58.4575 213.216ZM71.2621 213.419C71.2482 213.473 71.2343 213.526 71.219 213.589C70.8306 213.944 70.7082 214.5 70.9125 214.982C71.1169 215.464 71.6044 215.768 72.1331 215.744C72.4542 217.026 72.6184 218.341 72.6221 219.662C72.6221 219.749 72.6221 219.84 72.6194 219.93C72.4019 220.197 72.1825 220.462 71.9629 220.728C71.8038 220.92 71.6445 221.113 71.4857 221.306C71.4718 221.326 71.458 221.342 71.4413 221.361C71.3726 221.445 71.3035 221.529 71.2345 221.612C71.1276 221.741 71.0208 221.87 70.9162 222C68.3452 220.934 65.8232 219.785 63.3504 218.551C65.462 215.379 70.3466 210.996 71.2718 213.17C71.2829 213.194 71.294 213.222 71.3051 213.249C71.2899 213.312 71.276 213.366 71.2621 213.419Z" fill="white"/>
<path d="M130.42 157.034C131.759 157.952 133.439 158.233 135.007 157.802C136.576 157.371 137.871 156.272 138.545 154.801L158 156.609L153.224 147.707L135.482 147.355C132.861 146.372 129.915 147.491 128.623 149.961C127.332 152.43 128.103 155.469 130.42 157.034L130.42 157.034Z" fill="#FFB6B6"/>
<path d="M150 155.979L176.995 159L177.088 158.881C177.266 158.654 194.929 136.085 197.897 130.713C199.723 127.485 200.388 123.731 199.782 120.074L199.761 119.985L199.691 119.925C196.727 117.446 192.435 117.352 189.365 119.699C182.198 125.24 176.419 132.367 172.484 140.519L170.252 145.159L150 147.153L150 155.979Z" fill="#F20089"/>
<path d="M128 218.743L122.989 230.743C122.27 230.795 121.55 230.837 120.829 230.869C120.259 230.899 119.692 230.921 119.119 230.937L118.925 231L118.765 230.948C117.996 230.973 117.223 230.988 116.449 230.995C116.121 230.997 115.794 231 115.463 231C115.309 231 115.154 231 115 230.997L115.333 229.825L115.724 228.437L117.279 222.938L119.524 215L122.863 216.473L128 218.743Z" fill="#FFB6B6"/>
<path d="M166 219.617C163.303 220.843 160.551 221.97 157.744 223L155 218.656L163.847 215L166 219.617Z" fill="#FFB6B6"/>
<path d="M184 199V208.569C182.366 209.755 180.699 210.898 179 212V199H184Z" fill="#CACACA"/>
<path d="M201 193C199.626 194.523 198.212 196.006 196.756 197.45C193.33 200.859 189.693 204.049 185.865 207H164.072C162.901 207 161.788 206.496 161.016 205.617L161.013 205.608C160.559 205.096 160.243 204.476 160.096 203.808L160.093 203.802C160.031 203.515 160 203.223 160 202.929V197.071C160.001 194.824 161.823 193.003 164.072 193L201 193Z" fill="#5D5D5B"/>
<path d="M210 170.238L207.629 180.333C207.861 181.796 207.938 183.278 207.859 184.757C206.735 186.255 205.576 187.723 204.38 189.161C203.279 190.488 202.147 191.789 200.987 193.065C199.608 194.584 198.188 196.065 196.727 197.507C192.922 198.695 188.438 199.18 183.75 199.212C182.133 199.226 180.491 199.182 178.843 199.095C172.163 198.747 165.406 197.681 159.871 196.576C158.407 196.287 157.031 195.993 155.765 195.707C153.366 195.17 151.36 194.669 149.907 194.288C148.27 193.863 147.338 193.587 147.338 193.587L141.113 203.946L135.461 213.349L128.177 222.586C127.481 222.649 126.784 222.701 126.086 222.744C125.345 222.796 124.604 222.837 123.862 222.869C123.276 222.899 122.692 222.921 122.103 222.937L121.902 223L121.738 222.948L119.095 222.112L118.204 221.831L115 220.818C115 220.818 115.715 218.579 116.968 214.845C117.429 213.475 120.691 203.344 124.104 194.5C125.115 191.874 126.162 189.21 127.24 186.56C128.122 184.383 129.021 182.215 129.931 180.077C131.513 176.37 139.156 174.37 148.155 173.322C148.613 173.27 149.073 173.218 149.537 173.169C154.123 172.69 158.988 172.442 163.539 172.328C165.817 172.27 168.015 172.249 170.06 172.246C170.721 172.246 171.363 172.248 171.987 172.251H171.99C173.676 172.259 175.228 172.284 176.593 172.311C176.859 172.317 177.116 172.325 177.368 172.33H177.371C177.541 172.333 177.708 172.338 177.873 172.341C180.858 172.417 182.689 172.51 182.689 172.51L183.399 166.975L183.544 165.858L183.681 164.796V164.793L183.698 164.66L183.81 164.657L185.784 164.619L202.374 164.298L209.44 164L210 170.238Z" fill="#2F2E41"/>
<path d="M165 214.566C164.322 214.911 163.639 215.25 162.953 215.579C160.3 216.856 157.593 218.032 154.832 219.105C154.044 219.415 153.254 219.713 152.456 220C152.368 219.877 152.277 219.754 152.187 219.631C148.378 214.419 146.008 211.097 141.11 203.445C139.061 200.244 137 196.906 135 193.497L149.481 186.755L151.106 186L155.776 195.168L159.941 203.346L160.868 205.166L165 214.566Z" fill="#2F2E41"/>
<circle cx="188.5" cy="90.5" r="13.5" fill="#FFB6B6"/>
<path d="M212.991 132.368C212.88 121.338 213.208 124.532 212.325 120.734C209.953 110.523 200.105 108.66 198.389 108.43C198.019 107.457 197.258 106.679 196.286 106.283C195.314 105.887 194.22 105.907 193.264 106.34L189.977 108.025C186.791 109.467 188.725 111.55 187.625 114.837L186.469 118.325L177 144.205L178.917 154.051L178.919 154.057L180.211 160.689L184.041 165.003L183.969 164.315L183.883 164.447L183.881 164.449L183.658 164.776C183.967 164.944 184.272 165.109 184.572 165.273C185.35 165.696 186.108 166.111 186.847 166.517C187.025 166.616 187.2 166.712 187.375 166.811H187.378C187.489 166.872 187.6 166.932 187.708 166.993C190.48 168.525 180.219 171.316 182.5 172.626C182.817 172.807 183.131 172.988 183.439 173.167C193.939 179.239 202.316 186.803 205.025 189C206.236 187.55 207.411 186.07 208.55 184.559C209.583 183.194 210.584 181.805 211.553 180.393C211.722 179.289 211.836 178.184 211.947 177.102C212.08 175.8 211.386 163.741 211.619 162.414C211.722 161.826 211.328 161.269 210.947 160.731C210.594 160.228 210.261 159.756 210.33 159.311C210.403 158.852 210.914 158.352 211.411 157.866C211.953 157.333 212.514 156.784 212.594 156.204C212.816 154.59 211.903 152.969 212.075 151.343C212.358 148.698 212.576 146.045 212.728 143.384C212.941 139.709 213.029 136.037 212.991 132.368Z" fill="#F20089"/>
<path d="M137.509 159.406C138.605 158.196 140.156 157.556 141.745 157.66C143.334 157.763 144.798 158.598 145.743 159.941L164 154L161.237 163.998L144.323 168.107C142.014 169.654 138.966 169.147 137.227 166.927C135.489 164.707 135.61 161.476 137.509 159.406L137.509 159.406Z" fill="#FFB6B6"/>
<path d="M160 165L194.228 157.92L185.345 160.127C185.446 159.86 195.429 133.315 196.642 127.361C197.411 123.77 196.933 120.024 195.287 116.744L195.242 116.665L195.158 116.63C191.64 115.158 187.575 116.332 185.377 119.457C180.263 126.807 176.921 135.249 175.616 144.117L174.879 149.163L162.811 152.785L160 165Z" fill="#F20089"/>
<path fill-rule="evenodd" clip-rule="evenodd" d="M97.64 155C96.8948 155.013 96.2259 154.535 95.9838 153.815L94.0871 139.583C93.9316 139.106 93.9861 138.583 94.2363 138.15C94.4865 137.716 94.9081 137.414 95.3924 137.322C95.481 137.303 95.571 137.291 95.6616 137.288L106.577 137C107.072 136.995 107.546 137.204 107.882 137.576C108.035 137.542 108.191 137.526 108.347 137.526C109.776 137.489 110.963 138.643 110.999 140.102C111.035 141.561 109.906 142.774 108.477 142.811C108.086 142.819 107.698 142.737 107.342 142.572L106.338 153.539C106.139 154.28 105.487 154.798 104.736 154.813L97.64 155ZM108.262 139.214L107.548 141.828C107.824 141.986 108.138 142.064 108.454 142.054C109.474 142.027 110.28 141.162 110.257 140.12C110.233 139.078 109.388 138.253 108.368 138.274C108.35 138.274 108.334 138.278 108.318 138.283C108.302 138.287 108.285 138.291 108.268 138.291C108.346 138.594 108.344 138.912 108.262 139.214Z" fill="#2F2E41"/>
<path d="M95 137.259C95.2389 138.351 97.9254 139.118 101.156 138.985C104.126 138.876 106.555 138.042 107 137.054C106.835 137.015 106.664 136.997 106.492 137L95.2767 137.232C95.1836 137.234 95.0911 137.244 95 137.259Z" fill="#5D5D5B"/>
<path d="M46 127.139V150.86C46.0005 151.489 46.5047 152 47.1269 152H81.8731C82.4953 152 82.9995 151.489 83 150.86V127.139C82.9985 126.51 82.4947 126.001 81.8731 126H47.1269C46.5053 126.001 46.0015 126.51 46 127.139Z" fill="#5D5D5B"/>
<path d="M47 127.602V150.4C47.0006 150.731 47.2671 150.999 47.596 151H81.404C81.7329 150.999 81.9994 150.731 82 150.4V127.602C82 127.27 81.7334 127.001 81.404 127H47.596C47.2666 127.001 47 127.27 47 127.602H47Z" fill="#F20089"/>
<path d="M45.1556 155.753C45.286 155.91 45.4841 156.001 45.6932 156H83.3087C83.517 156 83.7142 155.909 83.8454 155.754C83.9766 155.598 84.028 155.394 83.9853 155.197L83.4014 152.528C83.3522 152.307 83.19 152.125 82.9704 152.045C82.8922 152.015 82.8088 152 82.7248 152H46.2748C46.1907 152 46.1074 152.015 46.0292 152.045C45.8096 152.125 45.6474 152.307 45.5982 152.528L45.0143 155.197C44.9722 155.393 45.0241 155.597 45.1556 155.753Z" fill="#2F2E41"/>
<rect x="82" y="153" width="1" height="1" rx="0.48819" transform="rotate(-180 82 153)" fill="#5D5D5B"/>
<rect x="80" y="153" width="1" height="1" rx="0.48819" transform="rotate(-180 80 153)" fill="#5D5D5B"/>
<rect x="78" y="153" width="1" height="1" rx="0.48819" transform="rotate(-180 78 153)" fill="#5D5D5B"/>
<rect x="76" y="153" width="1" height="1" rx="0.48819" transform="rotate(-180 76 153)" fill="#5D5D5B"/>
<rect x="73" y="153" width="1" height="1" rx="0.48819" transform="rotate(-180 73 153)" fill="#5D5D5B"/>
<rect x="71" y="153" width="1" height="1" rx="0.48819" transform="rotate(-180 71 153)" fill="#5D5D5B"/>
<rect x="69" y="153" width="1" height="1" rx="0.48819" transform="rotate(-180 69 153)" fill="#5D5D5B"/>
<rect x="66" y="153" width="1" height="1" rx="0.48819" transform="rotate(-180 66 153)" fill="#5D5D5B"/>
<rect x="64" y="153" width="1" height="1" rx="0.48819" transform="rotate(-180 64 153)" fill="#5D5D5B"/>
<rect x="62" y="153" width="1" height="1" rx="0.48819" transform="rotate(-180 62 153)" fill="#5D5D5B"/>
<rect x="60" y="153" width="1" height="1" rx="0.48819" transform="rotate(-180 60 153)" fill="#5D5D5B"/>
<rect x="57" y="153" width="1" height="1" rx="0.48819" transform="rotate(-180 57 153)" fill="#5D5D5B"/>
<rect x="55" y="153" width="1" height="1" rx="0.48819" transform="rotate(-180 55 153)" fill="#5D5D5B"/>
<rect x="53" y="153" width="1" height="1" rx="0.48819" transform="rotate(-180 53 153)" fill="#5D5D5B"/>
<rect x="50" y="153" width="1" height="1" rx="0.48819" transform="rotate(-180 50 153)" fill="#5D5D5B"/>
<rect x="48" y="153" width="1" height="1" rx="0.48819" transform="rotate(-180 48 153)" fill="#5D5D5B"/>
<rect x="83" y="154" width="1" height="1" rx="0.48819" transform="rotate(-180 83 154)" fill="#5D5D5B"/>
<rect x="80" y="154" width="1" height="1" rx="0.48819" transform="rotate(-180 80 154)" fill="#5D5D5B"/>
<rect x="78" y="154" width="1" height="1" rx="0.48819" transform="rotate(-180 78 154)" fill="#5D5D5B"/>
<rect x="76" y="154" width="1" height="1" rx="0.48819" transform="rotate(-180 76 154)" fill="#5D5D5B"/>
<rect x="73" y="154" width="1" height="1" rx="0.48819" transform="rotate(-180 73 154)" fill="#5D5D5B"/>
<rect x="71" y="154" width="1" height="1" rx="0.48819" transform="rotate(-180 71 154)" fill="#5D5D5B"/>
<rect x="69" y="154" width="1" height="1" rx="0.48819" transform="rotate(-180 69 154)" fill="#5D5D5B"/>
<rect x="66" y="154" width="1" height="1" rx="0.48819" transform="rotate(-180 66 154)" fill="#5D5D5B"/>
<rect x="64" y="154" width="1" height="1" rx="0.48819" transform="rotate(-180 64 154)" fill="#5D5D5B"/>
<rect x="62" y="154" width="1" height="1" rx="0.48819" transform="rotate(-180 62 154)" fill="#5D5D5B"/>
<rect x="60" y="154" width="1" height="1" rx="0.48819" transform="rotate(-180 60 154)" fill="#5D5D5B"/>
<rect x="57" y="154" width="1" height="1" rx="0.48819" transform="rotate(-180 57 154)" fill="#5D5D5B"/>
<rect x="55" y="154" width="1" height="1" rx="0.48819" transform="rotate(-180 55 154)" fill="#5D5D5B"/>
<rect x="53" y="154" width="1" height="1" rx="0.48819" transform="rotate(-180 53 154)" fill="#5D5D5B"/>
<rect x="50" y="154" width="1" height="1" rx="0.48819" transform="rotate(-180 50 154)" fill="#5D5D5B"/>
<rect x="48" y="154" width="1" height="1" rx="0.48819" transform="rotate(-180 48 154)" fill="#5D5D5B"/>
<rect x="71" y="156" width="9" height="1" rx="0.48819" transform="rotate(-180 71 156)" fill="#5D5D5B"/>
<path d="M129.628 154.486L145.475 141.128C146.228 140.493 144.791 142.385 145.45 143.112C146.109 143.838 148.614 143.124 147.86 143.759L132.013 157.117L128 158L129.628 154.486Z" fill="#5D5D5B"/>
<path d="M129.512 154.337L129.869 154C130.346 154.258 130.771 154.615 131.12 155.05C131.535 155.561 131.835 156.167 132 156.823L131.729 157.079L128.757 157.813L128 158L128.316 157.233L129.512 154.337Z" fill="#CCCCCC"/>
<path d="M128.417 157C128.713 157.139 128.929 157.42 129 157.756L128 158L128.417 157Z" fill="#5D5D5B"/>
<path d="M231.507 110.038C230.04 112.215 227.692 113.722 225.163 114.468C224.135 114.771 223.075 114.95 222.004 115C221.872 113.799 221.555 112.626 221.065 111.52C221.115 112.697 220.95 113.873 220.578 114.992C218.97 114.901 217.398 114.484 215.96 113.765C213.155 112.34 210.995 109.615 210.516 106.524C209.952 102.914 211.603 99.3689 212.199 95.7644C212.799 92.16 211.674 87.5947 208.116 86.6474C205.406 85.9254 205.71 86.2376 203.457 87.8959C205.8 91.3316 197.145 103.922 193.603 102.824C191.601 102.203 190.319 100.381 189.905 100.381C187.122 105.137 192.363 113.149 187.081 114.813L187.516 114.381C190.705 110.492 184.04 102.26 187.228 98.3701C188.118 97.2817 189.065 95.9924 188.802 94.6163C188.553 93.3081 186.459 92.6159 185.846 93.6908C186.949 91.1856 185.321 87.8417 182.624 87.1984C180.229 86.6257 180.273 87.3314 177.87 87.6381C177.713 86.6082 177.419 85.6034 176.997 84.6498C177.041 85.6773 176.92 86.7053 176.638 87.6951C175.789 87.6786 174.97 87.3848 174.306 86.8591C172.346 85.293 172.743 82.0034 174.492 80.2093C176.244 78.4152 178.847 77.7692 181.33 77.3513C182.052 72.3678 195.918 71.8479 197.755 76.8274C198.538 73.109 203.233 71.1792 206.881 72.3327C210.53 73.4862 213.062 76.8654 214.395 80.4264C215.728 83.9848 216.1 87.8145 216.921 91.5221C217.742 95.2297 219.13 99.0052 221.988 101.532C224.845 104.056 229.501 104.892 232.512 102.547C233.462 104.99 232.972 107.859 231.507 110.038Z" fill="#2F2E41"/>
</svg>
