<svg width="249" height="273" viewBox="0 0 249 273" fill="none" xmlns="http://www.w3.org/2000/svg">
<rect width="249" height="273" fill="#F2F2F2"/>
<g id="Payouts / Empty" clip-path="url(#clip0_0_7940)">
<rect width="1440" height="988" transform="translate(-714 -271)" fill="white"/>
<g id="Art">
<circle id="Oval" opacity="0.7" cx="133" cy="157.5" r="115.5" fill="#EBF0F0"/>
<g id="Group">
<ellipse id="Mask" cx="124.431" cy="136.601" rx="124.069" ry="136.399" fill="#EBF0F0" fill-opacity="0.01"/>
<mask id="mask0_0_7940" style="mask-type:alpha" maskUnits="userSpaceOnUse" x="0" y="0" width="249" height="273">
<ellipse id="Mask_2" cx="124.431" cy="136.601" rx="124.069" ry="136.399" fill="white"/>
</mask>
<g mask="url(#mask0_0_7940)">
<g id="undraw_investment_re_rpk5">
<path id="Path" d="M243.446 248H24.5545C18.7281 247.993 14.0065 243.244 14 237.384V142.616C14.0066 136.756 18.7282 132.007 24.5545 132H243.446C249.272 132.007 253.993 136.756 254 142.616V237.384C253.993 243.244 249.272 247.993 243.446 248V248Z" fill="white"/>
<path id="Shape" fill-rule="evenodd" clip-rule="evenodd" d="M23.5856 247H243.123C248.966 246.993 253.702 242.28 253.708 236.463C262.257 208.44 261.936 169.674 253.708 142.4C253.702 136.583 248.966 131.869 243.123 131.863C163.649 126.039 89.0774 124.751 23.5856 131.863C17.7421 131.869 13.0066 136.583 13 142.4V236.463C13.0066 242.28 17.7421 246.993 23.5856 247ZM16.7514 135.597C18.5639 133.793 21.0223 132.779 23.5856 132.779L191.229 132.779C225.227 132.779 252.788 160.214 252.788 194.057V236.463C252.788 241.776 248.461 246.084 243.123 246.084H23.5856C18.2477 246.084 13.9205 241.776 13.9205 236.463V142.4C13.9205 139.848 14.9388 137.401 16.7514 135.597Z" fill="#3F3D56"/>
<path id="Path_2" d="M174.842 146H147.158C146.745 146.002 146.362 145.717 146.155 145.252C145.948 144.787 145.948 144.213 146.155 143.748C146.362 143.283 146.745 142.998 147.158 143H174.842C175.255 142.998 175.638 143.283 175.845 143.748C176.052 144.213 176.052 144.787 175.845 145.252C175.638 145.717 175.255 146.002 174.842 146V146Z" fill="#F20089"/>
<path id="Path_3" d="M150.842 182H123.158C122.745 182.002 122.362 181.717 122.155 181.252C121.948 180.787 121.948 180.213 122.155 179.748C122.362 179.283 122.745 178.998 123.158 179H150.842C151.255 178.998 151.638 179.283 151.845 179.748C152.052 180.213 152.052 180.787 151.845 181.252C151.638 181.717 151.255 182.002 150.842 182V182Z" fill="#F20089"/>
<path id="Path_4" d="M172.945 178.784C171.861 177.048 170.961 175.174 170.264 173.202C170.22 173.08 170.116 173 170 173C169.883 173 169.779 173.08 169.736 173.202C169.039 175.174 168.139 177.048 167.055 178.784C166.981 178.899 166.982 179.055 167.058 179.168C167.133 179.281 167.266 179.325 167.384 179.276L169.625 178.362V194H170.375V178.362L172.616 179.276C172.734 179.325 172.867 179.282 172.942 179.168C173.018 179.055 173.019 178.899 172.945 178.784V178.784Z" fill="#3F3D56"/>
<path id="Path_5" d="M147.264 152.202C147.22 152.08 147.116 152 147 152C146.883 152 146.779 152.08 146.736 152.202C146.039 154.174 145.139 156.048 144.055 157.784C143.981 157.899 143.982 158.055 144.058 158.168C144.133 158.281 144.266 158.325 144.384 158.276L146.625 157.362V173H147.375V157.362L149.616 158.276C149.734 158.325 149.867 158.282 149.942 158.168C150.018 158.055 150.019 157.899 149.945 157.784C148.861 156.048 147.961 154.174 147.264 152.202Z" fill="#3F3D56"/>
<path id="Path_6" d="M124.264 186.202C124.22 186.08 124.116 186 124 186C123.883 186 123.779 186.08 123.736 186.202C123.039 188.174 122.139 190.048 121.055 191.784C120.981 191.899 120.982 192.055 121.058 192.168C121.133 192.281 121.266 192.325 121.384 192.276L123.625 191.362V207H124.375V191.362L126.616 192.276C126.734 192.325 126.867 192.282 126.942 192.168C127.018 192.055 127.019 191.899 126.945 191.784C125.861 190.048 124.961 188.174 124.264 186.202Z" fill="#3F3D56"/>
<path id="Path_7" d="M224 198V191.586C211.608 182.174 204.738 182.075 200.709 183.97C195.594 186.377 193.922 192.529 192 198H224Z" fill="#F2F2F2"/>
<path id="Path_8" d="M120 222C117.233 220.041 116.034 214.746 110.35 213.305C107.036 212.465 104.24 213.455 99.5534 215.116C93.377 217.305 90.6554 219.788 87 222H120Z" fill="#F2F2F2"/>
<path id="Path_9" d="M133.849 212C130.156 216.609 128.353 221.2 126 223H224V212H133.849Z" fill="#F2F2F2"/>
<path id="Path_10" d="M190.375 200C188.853 203.885 187.032 207.225 183.351 208.25C176.871 210.054 173.964 202.083 161.618 200.786C160.359 200.653 149.432 199.653 139.885 205.893C137.697 207.329 135.717 209.047 134 211H224V200H190.375Z" fill="#F2F2F2"/>
<circle id="Oval_2" cx="150" cy="201" r="6" fill="#F20089"/>
<path id="Path_11" d="M77.0011 241L82.4217 241L85 219L77 219.001L77.0011 241V241Z" fill="#FFB6B6"/>
<path id="Path_12" d="M76.0003 246L94 245.999V245.789C93.9997 242.209 90.8632 239.308 86.994 239.308H86.9936L83.7057 237L77.5713 239.308L76 239.308L76.0003 246Z" fill="#2F2E41"/>
<path id="Path_13" d="M81 217.711L76.2823 221L61 204.856L67.9626 200L81 217.711V217.711Z" fill="#FFB6B6"/>
<path id="Path_14" d="M84 222.749L69.4373 233L69.3054 232.819C67.0625 229.744 67.7816 225.465 70.9118 223.261L70.9121 223.261L72.126 219.406L78.5353 217.895L79.8065 217L84 222.749Z" fill="#2F2E41"/>
<path id="Path_15" d="M59.4246 115C59.4246 115 23.5101 153.056 29.722 164.211C35.934 175.366 65.8975 213.51 65.8975 213.51L74.1121 204.221C67.2082 188.089 59.7796 173.99 51.1133 164.686L76.2255 146.417C76.2255 146.417 78.0733 176.659 76.5531 181.41C75.0328 186.162 72.4749 183.643 75.0328 186.162C77.5906 188.68 78.8809 189.143 77.505 190.711C76.129 192.279 75.1393 228 75.1393 228H86.9561C86.9561 228 97.9833 162.191 97.2876 159.783C96.5919 157.374 96.991 158.478 96.9742 155.407C96.9573 152.336 102 127.177 102 127.177L59.4246 115Z" fill="#2F2E41"/>
<path id="Path_16" d="M83.9262 44L72.6634 44.7227L65.2727 54.1364L52.9755 63.456L60.7778 87.0718C60.7778 87.0718 60.3936 99.141 59.0805 100.657C57.7674 102.174 55.5875 100.367 57.7674 103.619C59.0964 105.68 59.8489 108.056 59.9473 110.502C59.9473 110.502 47.5257 120.782 51.9543 123.492C56.3829 126.202 65.328 119.156 69.904 123.312C74.48 127.467 104.878 135.834 104.999 129.996C105.119 124.158 97.4083 78.5706 97.4083 78.5706L99.1855 56.6465L89.0127 49.7813L83.9262 44Z" fill="#F20089"/>
<path id="Path_17" d="M65.4226 136.623L61.6994 125L55 126.279L59.358 138.422C58.6222 140.398 59.459 142.63 61.2887 143.572C63.1184 144.514 65.3385 143.855 66.4109 142.052C67.4834 140.249 67.055 137.896 65.4226 136.623H65.4226Z" fill="#FFB6B6"/>
<path id="Path_18" d="M54.5644 61L54.3775 61.075C50.8488 62.492 48.2731 65.4941 47.4935 69.0984C46.4887 73.7297 45.5001 80.4282 46.2817 86.7006C47.6621 97.7784 44.8333 102.653 46.6739 106.198C48.5145 109.743 48.9746 108.413 48.5144 111.072C48.0543 113.731 45.7536 111.515 48.0543 115.06C50.355 118.605 51.7355 117.719 50.8152 119.491C49.8949 121.263 48.5145 121.263 50.355 123.479C52.1956 125.695 52.1956 126.581 52.6558 127.467C53.1159 128.353 54.4963 135 54.4963 135C54.4963 135 61.8587 132.784 66 133.671C66 133.671 62.3188 127.467 63.2391 126.138C64.1594 124.808 65.5399 124.365 64.1594 123.036C62.779 121.707 60.4782 122.15 62.779 120.82C65.0797 119.491 63.1982 92.4989 63.1982 92.4989L54.5644 61Z" fill="#F20089"/>
<path id="Path_19" d="M113.503 123.367L111 111.45L117.289 109L119.508 121.699C121.091 123.001 121.469 125.354 120.379 127.128C119.289 128.902 117.091 129.512 115.307 128.537C113.523 127.562 112.741 125.321 113.503 123.367Z" fill="#FFB6B6"/>
<path id="Path_20" d="M87 52.1389L87.1938 52.1116C90.854 51.5965 94.5376 52.8853 97.0389 55.5562C100.255 58.9865 104.522 64.1738 107.098 69.8604C111.649 79.9037 113.391 84.4747 113.685 88.3681C113.979 92.2614 112.914 91.3602 114.663 93.3861C116.413 95.4121 117.185 92.4199 117.096 96.5368C117.008 100.654 115.406 100.574 117.082 101.627C118.758 102.68 119.905 102.009 119.515 104.778C119.126 107.546 119.581 108.296 119.655 109.269C119.728 110.243 122 116.537 122 116.537C122 116.537 114.744 118.239 111.76 121C111.76 121 111.628 113.963 110.179 113.285C108.731 112.608 107.356 112.903 107.82 111.108C108.283 109.313 110.422 108.57 107.827 108.563C105.232 108.556 89.6396 75.7169 89.6396 75.7169L87 52.1389Z" fill="#F20089"/>
<circle id="Oval_3" cx="77" cy="31" r="12" fill="#FFB6B6"/>
<path id="Path_21" d="M91 28.0515C89.7914 28.5986 89.0083 32.5611 88.0584 31.6399C87.1085 30.7187 87.1719 29.5199 85.8912 29.1799C84.857 28.9042 83.744 29.2193 82.8006 29.7163C82.6322 29.804 82.4689 29.8993 82.3097 29.9941C82.2047 29.9245 82.1001 29.8589 81.9879 29.7984C81.144 29.3501 80.1592 29.2401 79.2361 29.4911C79.9655 29.7336 80.5996 30.1977 81.0489 30.8176C80.7331 31.0276 80.4133 31.2382 80.0862 31.4248C77.3535 32.9905 73.4649 29.586 70.5884 28.307C72.3901 31.6638 71.503 33.054 69.9385 36.5256L69.8845 36.7233C69.9734 35.8532 67.2614 35.2048 67.4187 36.4296C67.6935 37.6701 68.1285 38.8702 68.713 40C65.6887 36.5282 63.622 32.2797 64.0581 27.897C64.153 26.9764 64.1244 26.005 64.6027 25.2059C65.0815 24.4109 66.0797 23.8531 66.9629 24.1562C66.8104 21.3085 68.2465 18.608 70.701 17.1268C73.1555 15.6456 76.2313 15.6232 78.7073 17.0686C79.8366 17.7265 80.7793 18.6569 81.8143 19.4595C82.8493 20.262 84.0424 20.9616 85.3548 21.0278C86.1874 21.0677 87.0935 20.8659 87.8087 21.294C88.6373 21.7908 88.7792 22.8308 88.9035 23.8316C88.1645 23.9039 87.464 24.1934 86.8914 24.663C87.6561 24.5855 88.4259 24.7495 89.0913 25.1314C89.1039 25.1371 89.116 25.1439 89.1273 25.1517C89.5654 26.8057 89.5205 27.1724 91 28.0515Z" fill="#2F2E41"/>
<path id="Path_22" d="M196.842 170H169.158C168.745 170.002 168.362 169.717 168.155 169.252C167.948 168.787 167.948 168.213 168.155 167.748C168.362 167.283 168.745 166.998 169.158 167H196.842C197.255 166.998 197.638 167.283 197.845 167.748C198.052 168.213 198.052 168.787 197.845 169.252C197.638 169.717 197.255 170.002 196.842 170V170Z" fill="#F20089"/>
<path id="Path_23" d="M49.2436 238.916C48.7829 238.938 48.3582 238.659 48.1803 238.217C48.0024 237.775 48.1093 237.265 48.4479 236.94L48.5231 236.629C48.5132 236.604 48.5033 236.579 48.4933 236.555C48.0301 235.418 46.9555 234.682 45.7674 234.686C44.5794 234.691 43.5101 235.436 43.055 236.576C42.1656 238.8 41.0332 241.029 40.7543 243.382C40.6315 244.421 40.6833 245.476 40.9074 246.497C38.8184 241.764 37.7336 236.62 37.7266 231.413C37.7261 230.107 37.796 228.801 37.9359 227.503C38.0515 226.438 38.2119 225.381 38.4171 224.332C39.5368 218.639 41.9409 213.303 45.4318 208.762C47.1214 207.804 48.4879 206.332 49.3469 204.543C49.6582 203.9 49.8781 203.213 50 202.505C49.8094 202.531 49.2813 199.516 49.4251 199.331C49.1595 198.912 48.684 198.704 48.394 198.296C46.9512 196.264 44.9635 196.619 43.9258 199.38C41.709 200.542 41.6876 202.469 43.0478 204.322C43.9131 205.501 44.032 207.097 44.7913 208.359C44.7132 208.463 44.6319 208.564 44.5538 208.667C43.1259 210.574 41.8813 212.622 40.838 214.781C41.0917 212.363 40.7889 209.916 39.9544 207.642C39.1087 205.523 37.5235 203.738 36.1276 201.907C34.4509 199.706 31.0125 200.666 30.7171 203.456C30.7143 203.483 30.7115 203.51 30.7088 203.537C30.9161 203.658 31.1191 203.787 31.3176 203.924C31.8283 204.278 32.0771 204.921 31.9443 205.544C31.8114 206.167 31.3242 206.641 30.7173 206.738L30.6869 206.743C30.7608 207.519 30.8913 208.288 31.0775 209.044C29.2867 216.237 33.1529 218.857 38.6733 218.974C38.7952 219.039 38.914 219.104 39.0358 219.166C37.9876 222.251 37.3301 225.465 37.0798 228.726C36.9382 230.65 36.9465 232.583 37.1048 234.506L37.0955 234.438C36.6955 232.3 35.5973 230.371 33.9865 228.976C31.5939 226.935 28.2137 226.183 25.6326 224.542C25.0725 224.169 24.3547 224.167 23.7928 224.538C23.231 224.908 22.9274 225.584 23.0149 226.269C23.0183 226.293 23.0218 226.317 23.0254 226.341C23.4102 226.504 23.7848 226.691 24.1471 226.902C24.3545 227.024 24.5574 227.153 24.756 227.289C25.2666 227.643 25.5155 228.287 25.3826 228.91C25.2498 229.532 24.7625 230.007 24.1556 230.104L24.1252 230.109C24.1034 230.112 24.0846 230.115 24.0628 230.118C24.7202 231.749 25.6429 233.249 26.7905 234.555C27.9103 240.834 32.7196 241.429 37.8641 239.601H37.8672C38.4317 242.148 39.2495 244.628 40.3075 247H49.0251C49.0564 246.899 49.0845 246.796 49.1126 246.695C48.3057 246.748 47.4956 246.698 46.7004 246.546C47.3472 245.721 47.994 244.891 48.6408 244.066C48.6553 244.051 48.6688 244.035 48.6814 244.018C49.0095 243.596 49.3407 243.177 49.6688 242.755L49.669 242.755C49.6865 241.462 49.5436 240.171 49.2439 238.916L49.2436 238.916Z" fill="#F2F2F2"/>
</g>
<path id="Shape_2" fill-rule="evenodd" clip-rule="evenodd" d="M210.238 96.6935C210.419 95.1247 210.669 93.5658 210.988 92.0168C212.73 83.6174 216.468 75.7447 221.897 69.0447C225.002 69.2153 227.724 68.748 227.984 62.8214C228.01 62.2483 228.258 61.7158 228.505 61.1822L228.505 61.1822C228.713 60.735 228.921 60.287 229 59.8136C228.706 59.8544 228.401 59.8766 228.108 59.8952C228.059 59.8971 228.01 59.9 227.961 59.9029L227.961 59.9029C227.915 59.9055 227.869 59.9082 227.826 59.91H227.792C227.126 59.9407 226.504 59.5829 226.204 58.9964C225.904 58.4099 225.981 57.7043 226.403 57.1952C226.531 57.0431 226.659 56.8874 226.787 56.7316C226.915 56.5709 227.046 56.4135 227.177 56.256C227.243 56.1773 227.309 56.0986 227.374 56.0195L227.406 55.9824L227.438 55.9453L227.438 55.9445C227.66 55.6741 227.882 55.4036 228.108 55.1331C227.7 54.509 227.151 53.9861 226.504 53.6051C224.264 52.3107 221.174 53.2083 219.555 55.2036C217.933 57.1989 217.624 60.0027 218.189 62.495C218.671 64.6313 219.721 66.5895 220.899 68.4513C220.847 68.5177 220.792 68.5833 220.738 68.6492L220.738 68.6494L220.738 68.6497C220.668 68.7346 220.598 68.8199 220.53 68.9075C218.31 71.7211 216.375 74.7421 214.752 77.9272C215.211 74.3927 209.598 61.6346 207.426 58.9309C204.818 55.6857 199.472 57.1024 199.013 61.2192C199.011 61.2363 199.009 61.2542 199.006 61.2726L199.006 61.2726C199.003 61.294 199 61.3159 198.998 61.3379C199.322 61.5159 199.638 61.705 199.947 61.909C200.74 62.4315 201.127 63.3805 200.92 64.2986C200.714 65.2168 199.956 65.9159 199.013 66.0591L198.964 66.0665C194.65 72.1378 208.484 87.9408 211.951 84.3953C211.08 86.8084 210.384 89.2798 209.87 91.7905C209.408 94.0052 209.086 96.2458 208.906 98.4997C208.686 101.338 208.7 104.19 208.947 107.026C208.94 106.993 208.935 106.96 208.932 106.926C208.16 100.747 194.959 91.5606 191.104 92.3246C190.737 92.3975 190.371 92.4557 190.017 92.5119L190.017 92.5119C188.229 92.7958 186.752 93.0305 187.035 94.8725C187.037 94.8911 187.04 94.9087 187.042 94.9263C187.045 94.9439 187.048 94.9615 187.05 94.9801C187.649 95.2181 188.231 95.4944 188.793 95.8071C189.117 95.9852 189.433 96.178 189.741 96.3783C190.482 96.8665 190.873 97.7301 190.747 98.5994C190.621 99.4688 190 100.19 189.15 100.454C190.788 101.726 192.451 102.97 194.138 104.185C194.406 104.378 194.673 104.571 194.944 104.756C197.146 106.321 199.392 107.83 201.682 109.281C204.475 111.054 207.329 112.743 210.242 114.347L210.242 114.347L210.243 114.347C210.641 114.566 211.04 114.785 211.443 115C210.43 110.895 209.917 106.685 209.915 102.461C209.914 100.534 210.022 98.6085 210.238 96.6935ZM210.017 109.989L209.986 109.73C209.987 109.539 209.987 109.352 209.986 109.157C209.986 109.131 209.985 109.105 209.984 109.079L209.984 109.078C209.983 109.052 209.983 109.026 209.983 109C209.987 109.133 209.992 109.267 209.996 109.4V109.4C210.003 109.6 210.01 109.8 210.017 110L210.017 109.989ZM227.093 110.149C227.074 110.223 227.054 110.297 227.033 110.384C226.488 110.874 226.316 111.642 226.603 112.307C226.889 112.973 227.573 113.393 228.314 113.36C228.765 115.13 228.995 116.947 229 118.77C229 118.891 229 119.016 228.996 119.141C228.691 119.51 228.384 119.876 228.076 120.243C227.853 120.509 227.629 120.775 227.407 121.042C227.387 121.069 227.368 121.091 227.344 121.118C227.248 121.234 227.151 121.349 227.054 121.464C226.904 121.642 226.755 121.821 226.608 122C223.003 120.528 219.467 118.941 216 117.237C218.961 112.856 225.809 106.802 227.107 109.804C227.122 109.839 227.138 109.876 227.153 109.914C227.132 110.001 227.113 110.075 227.093 110.149Z" fill="white"/>
</g>
</g>
</g>
</g>
<defs>
<clipPath id="clip0_0_7940">
<rect width="1440" height="988" fill="white" transform="translate(-714 -271)"/>
</clipPath>
</defs>
</svg>
