<svg
  viewBox="0 0 64 64"
  fill="none"
  xmlns="http://www.w3.org/2000/svg"
>
  <rect width="64" height="64" rx="32" fill="#3E7EFF" />
  <mask
    id="mask0_0_11659"
    style="mask-type:alpha"
    maskUnits="userSpaceOnUse"
    x="0"
    y="0"
    width="64"
    height="64"
  >
    <rect width="64" height="64" rx="32" fill="white" />
  </mask>
  <g mask="url(#mask0_0_11659)">
    <rect width="64" height="64" fill="url(#paint0_radial_0_11659)" />
    <path
      d="M32.13 14C32.13 14.1646 32.13 14.3292 32.13 14.4938C32.13 20.5837 32.13 26.7559 32.13 32.8458C32.13 32.9281 32.13 33.0927 32.13 33.175C32.13 33.2573 32.0478 33.3396 31.9655 33.3396C31.3894 33.5865 30.8956 33.8334 30.3195 34.0803C29.5789 34.4095 28.7559 34.7386 28.0152 35.1501C27.11 35.5616 26.2047 35.9731 25.2995 36.3846C24.5588 36.7137 23.8181 37.0429 23.0775 37.3721C22.1722 37.7836 21.267 38.1951 20.3617 38.6066C19.621 38.9357 18.8804 39.2649 18.0574 39.6764C17.4813 39.9233 16.823 40.2525 16.2469 40.4994C16.1646 40.4994 16.1646 40.5817 16.0823 40.4994C16.0823 40.4994 16.0823 40.4994 16 40.4994C16.2469 40.0879 16.4938 39.7587 16.7407 39.3472C18.0574 37.1252 19.4564 34.9032 20.7732 32.6812C22.1722 30.2946 23.6535 27.9081 25.0526 25.5215C26.3693 23.2995 27.6861 21.0775 29.0028 18.9378C29.9903 17.2918 30.9779 15.7282 31.8832 14.0823C32.0478 14.0823 32.0478 14 32.13 14C32.13 14 32.0478 14 32.13 14Z"
      fill="white"
    />
    <path
      d="M16.0823 40.5C16.0823 40.5 16.1646 40.5 16.0823 40.5C16.1646 40.5 16.1646 40.5 16.0823 40.5C16.0823 40.5823 16.0823 40.5823 16.0823 40.5Z"
      fill="#808080"
    />
    <path
      d="M16.1646 40.5824C16.1646 40.5001 16.1646 40.5001 16.1646 40.5824C16.9876 40.171 17.8105 39.8418 18.6335 39.4303C19.7033 38.9365 20.7732 38.4427 21.843 37.949C22.666 37.5375 23.489 37.2083 24.3119 36.7968C25.4641 36.2207 26.6985 35.727 27.8506 35.1509C28.6736 34.8217 29.4966 34.4102 30.3195 34.081C30.8956 33.8342 31.4717 33.5873 32.0478 33.2581C32.13 33.2581 32.13 33.1758 32.2123 33.1758C32.2123 33.1758 32.2123 33.1758 32.2123 33.2581C32.2123 33.3404 32.2123 33.3404 32.2123 33.4227C32.2123 38.8542 32.2123 44.2858 32.2123 49.7173C32.2123 49.7996 32.2123 49.8819 32.2123 49.9642C32.13 50.0465 32.13 49.9642 32.0478 49.9642C31.8009 49.7996 31.554 49.7173 31.3894 49.5527C26.3693 46.5901 21.3493 43.6274 16.3292 40.6647C16.2469 40.5824 16.1646 40.5824 16.1646 40.5824Z"
      fill="#D7D7D7"
    />
    <path
      d="M32.1301 33.257C32.1301 33.1747 32.1301 33.0924 32.1301 33.0924C32.1301 26.8379 32.1301 20.5011 32.1301 14.2466C32.1301 14.1643 32.1301 14.082 32.1301 14.082C37.397 22.8054 42.664 31.5288 47.9309 40.2522C48.0132 40.3345 48.0955 40.4168 48.0955 40.4991C47.7663 40.3345 47.4371 40.1699 47.0257 40.0053C46.6142 39.8407 46.2027 39.5938 45.7912 39.4293C45.5443 39.347 45.2974 39.1824 44.9683 39.1001C44.5568 38.9355 44.063 38.6886 43.6515 38.524C43.4046 38.4417 43.1577 38.2771 42.9108 38.1948C42.3348 37.9479 41.7587 37.701 41.1826 37.4541C40.8534 37.2895 40.6066 37.2073 40.2774 37.0427C39.8659 36.8781 39.4544 36.6312 39.0429 36.4666C38.796 36.3843 38.5492 36.2197 38.3023 36.1374C37.7262 35.8905 37.1501 35.6436 36.574 35.3967C36.2449 35.2321 35.998 35.1498 35.6688 34.9853C35.2573 34.8207 34.8458 34.5738 34.4343 34.4092C34.1875 34.2446 33.8583 34.1623 33.6114 33.9977C33.1176 33.7508 32.6238 33.5039 32.1301 33.257Z"
      fill="#EDEDED"
    />
  </g>
  <defs>
    <radialGradient
      id="paint0_radial_0_11659"
      cx="0"
      cy="0"
      r="1"
      gradientUnits="userSpaceOnUse"
      gradientTransform="translate(12.1844 54.3869) rotate(-29.2168) scale(137.778)"
    >
      <stop stop-color="#7A52F4" />
      <stop offset="1" stop-color="#F20089" />
    </radialGradient>
  </defs>
</svg>