<svg  viewBox="0 0 22 14" fill="none" xmlns="http://www.w3.org/2000/svg">
<path d="M14.6523 7.90234C15.4544 7.90234 16.3281 8.01693 17.2734 8.24609C18.2188 8.47526 19.0924 8.84766 19.8945 9.36328C20.6966 9.87891 21.0977 10.4661 21.0977 11.125V13.4023H15.5977V11.125C15.5977 9.86458 14.9961 8.80469 13.793 7.94531C13.9935 7.91667 14.2799 7.90234 14.6523 7.90234ZM4.72656 8.24609C5.67188 8.01693 6.54557 7.90234 7.34766 7.90234C8.14974 7.90234 9.02344 8.01693 9.96875 8.24609C10.9141 8.47526 11.7734 8.84766 12.5469 9.36328C13.349 9.87891 13.75 10.4661 13.75 11.125V13.4023H0.902344V11.125C0.902344 10.4661 1.30339 9.87891 2.10547 9.36328C2.90755 8.84766 3.78125 8.47526 4.72656 8.24609ZM9.23828 5.28125C8.72266 5.82552 8.09245 6.09766 7.34766 6.09766C6.60286 6.09766 5.95833 5.82552 5.41406 5.28125C4.86979 4.73698 4.59766 4.09245 4.59766 3.34766C4.59766 2.60286 4.86979 1.95833 5.41406 1.41406C5.95833 0.869792 6.60286 0.597656 7.34766 0.597656C8.09245 0.597656 8.72266 0.869792 9.23828 1.41406C9.78255 1.95833 10.0547 2.60286 10.0547 3.34766C10.0547 4.09245 9.78255 4.73698 9.23828 5.28125ZM16.5859 5.28125C16.0417 5.82552 15.3971 6.09766 14.6523 6.09766C13.9076 6.09766 13.263 5.82552 12.7188 5.28125C12.1745 4.73698 11.9023 4.09245 11.9023 3.34766C11.9023 2.60286 12.1745 1.95833 12.7188 1.41406C13.263 0.869792 13.9076 0.597656 14.6523 0.597656C15.3971 0.597656 16.0417 0.869792 16.5859 1.41406C17.1302 1.95833 17.4023 2.60286 17.4023 3.34766C17.4023 4.09245 17.1302 4.73698 16.5859 5.28125Z" fill="#5D5D5B"/>
</svg>
