<svg viewBox="0 0 16 16" fill="none" xmlns="http://www.w3.org/2000/svg">
<path d="M12.4297 12.043C13.4844 10.918 14.0117 9.57031 14.0117 8C14.0117 6.75781 13.6602 5.63281 12.957 4.625C12.2773 3.61719 11.375 2.89063 10.25 2.44531V2.76172C10.25 3.16016 10.0977 3.51172 9.79297 3.81641C9.48828 4.09766 9.13672 4.23828 8.73828 4.23828H7.26172V5.75C7.26172 5.96094 7.17969 6.13672 7.01562 6.27734C6.875 6.41797 6.69922 6.48828 6.48828 6.48828H5.01172V8H9.51172C9.72266 8 9.89844 8.07031 10.0391 8.21094C10.1797 8.35156 10.25 8.52734 10.25 8.73828V10.9883H10.9883C11.6914 10.9883 12.1719 11.3398 12.4297 12.043ZM7.26172 13.9414V12.5C6.86328 12.5 6.51172 12.3477 6.20703 12.043C5.90234 11.7383 5.75 11.3867 5.75 10.9883V10.25L2.16406 6.66406C2.04688 7.13281 1.98828 7.57812 1.98828 8C1.98828 9.52344 2.49219 10.8477 3.5 11.9727C4.53125 13.0977 5.78516 13.7539 7.26172 13.9414ZM2.69141 2.72656C4.16797 1.25 5.9375 0.511719 8 0.511719C10.0625 0.511719 11.8203 1.25 13.2734 2.72656C14.75 4.17969 15.4883 5.9375 15.4883 8C15.4883 10.0625 14.75 11.832 13.2734 13.3086C11.8203 14.7617 10.0625 15.4883 8 15.4883C5.9375 15.4883 4.16797 14.7617 2.69141 13.3086C1.23828 11.832 0.511719 10.0625 0.511719 8C0.511719 5.9375 1.23828 4.17969 2.69141 2.72656Z" fill="black"/>
</svg>
