<svg viewBox="0 0 16 19" fill="none" xmlns="http://www.w3.org/2000/svg">
<path d="M10.0391 0.859375H5.03906V2.5H10.0391V0.859375ZM6.71875 11.6797H8.39844V6.67969H6.71875V11.6797ZM13.3984 6.17188L14.6094 4.96094C14.2578 4.53125 13.8672 4.14062 13.4375 3.78906L12.2266 5C10.9375 3.94531 9.33594 3.32031 7.53906 3.32031C3.39844 3.32031 0.0390625 6.67969 0.0390625 10.8203C0.0390625 14.9609 3.39844 18.3203 7.53906 18.3203C11.7188 18.3203 15.0391 14.9609 15.0391 10.8203C15.0391 9.0625 14.4531 7.46094 13.3984 6.17188ZM7.53906 16.6797C4.33594 16.6797 1.71875 14.0625 1.71875 10.8594C1.71875 7.61719 4.33594 5 7.53906 5C10.7812 5 13.3984 7.61719 13.3984 10.8594C13.3984 14.0625 10.7812 16.6797 7.53906 16.6797Z" fill="#5D5D5B"/>
</svg>
