<svg viewBox="0 0 18 18" fill="none" xmlns="http://www.w3.org/2000/svg">
<path d="M15.4023 11.75V2.59766H2.55469V11.75H6.25C6.25 12.4948 6.52214 13.1393 7.06641 13.6836C7.61068 14.2279 8.25521 14.5 9 14.5C9.74479 14.5 10.3893 14.2279 10.9336 13.6836C11.4779 13.1393 11.75 12.4948 11.75 11.75H15.4023ZM15.4023 0.75C15.918 0.75 16.3477 0.936198 16.6914 1.30859C17.0638 1.65234 17.25 2.08203 17.25 2.59766V15.4023C17.25 15.8893 17.0638 16.319 16.6914 16.6914C16.319 17.0638 15.8893 17.25 15.4023 17.25H2.55469C2.03906 17.25 1.60938 17.0781 1.26562 16.7344C0.921875 16.362 0.75 15.918 0.75 15.4023V2.59766C0.75 2.08203 0.921875 1.65234 1.26562 1.30859C1.60938 0.936198 2.03906 0.75 2.55469 0.75H15.4023Z" fill="#5D5D5B"/>
</svg>
